/* XPM */
static char *_01cb2411fb542d5f82379abfa4e377cECYTSilEkKpQky8J[] = {
/* columns rows colors chars-per-pixel */
"32 32 223 2 ",
"   c #453B1A",
".  c #593418",
"X  c #553E1B",
"o  c #5C3B1E",
"O  c #643C1E",
"+  c #673B1A",
"@  c #543F26",
"#  c #643E22",
"$  c #623B2B",
"%  c #603C30",
"&  c #3E5513",
"*  c #395B12",
"=  c #3A5008",
"-  c #3B6114",
";  c #454C1B",
":  c #4A4719",
">  c #54451D",
",  c #57491A",
"<  c #45591B",
"1  c #54561C",
"2  c #49500C",
"3  c #66411E",
"4  c #69541E",
"5  c #4E4D23",
"6  c #5E4125",
"7  c #5A4A25",
"8  c #534524",
"9  c #585425",
"0  c #575229",
"q  c #595A29",
"w  c #4A5721",
"e  c #644124",
"r  c #6A4325",
"t  c #64442A",
"y  c #6C4429",
"u  c #6C4B2D",
"i  c #6B4C2A",
"p  c #744C2D",
"a  c #704123",
"s  c #63582B",
"d  c #7E592C",
"f  c #76522E",
"g  c #6C4D32",
"h  c #6B4938",
"j  c #744E33",
"k  c #794F36",
"l  c #724A3B",
"z  c #724636",
"x  c #6D5938",
"c  c #685737",
"v  c #755235",
"b  c #7B5435",
"n  c #7C5A35",
"m  c #75553A",
"M  c #7B553A",
"N  c #745A3B",
"B  c #7D5A3D",
"V  c #775935",
"C  c #4D6020",
"Z  c #586627",
"A  c #467625",
"S  c #5F6831",
"D  c #587130",
"F  c #6D613A",
"G  c #68743A",
"H  c #52324A",
"J  c #583355",
"K  c #70335D",
"L  c #68335B",
"P  c #6A2964",
"I  c #643167",
"U  c #6E2877",
"Y  c #782776",
"T  c #6B3673",
"R  c #773173",
"E  c #574B49",
"W  c #6B4948",
"Q  c #714D41",
"!  c #745542",
"~  c #7E5444",
"^  c #7C5C42",
"/  c #785947",
"(  c #684459",
")  c #724454",
"_  c #714B5A",
"`  c #78555E",
"'  c #7A6546",
"]  c #78695C",
"[  c #6F7A52",
"{  c #757B52",
"}  c #7D5A60",
"|  c #724566",
" . c #6F6365",
".. c #80542F",
"X. c #815535",
"o. c #835A35",
"O. c #82563B",
"+. c #835B3C",
"@. c #8A5D3B",
"#. c #915F3C",
"$. c #84613D",
"%. c #8A623D",
"&. c #876537",
"*. c #91653E",
"=. c #845C42",
"-. c #8A5E42",
";. c #845E48",
":. c #8A5E4C",
">. c #825D55",
",. c #85535E",
"<. c #856343",
"1. c #8B6343",
"2. c #8D6A45",
"3. c #86624A",
"4. c #8B664B",
"5. c #8D6A4B",
"6. c #85694D",
"7. c #926646",
"8. c #946A46",
"9. c #92664A",
"0. c #936B4C",
"q. c #9A6D4C",
"w. c #996744",
"e. c #94734D",
"r. c #9B724D",
"t. c #967445",
"y. c #8A6454",
"u. c #8D6E53",
"i. c #896A5A",
"p. c #936D53",
"a. c #9B6F51",
"s. c #926C5B",
"d. c #906751",
"f. c #8B7256",
"g. c #947254",
"h. c #9C7454",
"j. c #9B7954",
"k. c #947359",
"l. c #9C7659",
"z. c #97785C",
"x. c #9D795A",
"c. c #967F53",
"v. c #A1704F",
"b. c #A27655",
"n. c #A37B54",
"m. c #A47C5C",
"M. c #AA7D5C",
"N. c #A1745B",
"B. c #8A4974",
"V. c #967963",
"C. c #A27663",
"Z. c #A37C61",
"A. c #AA7E62",
"S. c #599B33",
"D. c #69843B",
"F. c #708F3F",
"G. c #6D953B",
"H. c #659637",
"J. c #5EA339",
"K. c #6BAA3D",
"L. c #67A53D",
"P. c #71AA3D",
"I. c #72B23F",
"U. c #7C824B",
"Y. c #778746",
"T. c #689A44",
"R. c #749E45",
"E. c #799A4A",
"W. c #7C8552",
"Q. c #759351",
"!. c #7D9C56",
"~. c #6BA343",
"^. c #6BA54B",
"/. c #72AB42",
"(. c #78A84A",
"). c #7CBA45",
"_. c #7CBB4A",
"`. c #78B447",
"'. c #7EAB51",
"]. c #78A552",
"[. c #7AB854",
"{. c #839449",
"}. c #85895A",
"|. c #998555",
" X c #899B5D",
".X c #859654",
"XX c #979659",
"oX c #8D8749",
"OX c #AC815E",
"+X c #AA8056",
"@X c #A3945D",
"#X c #83BD4F",
"$X c #85A35B",
"%X c #86A956",
"&X c #84BA53",
"*X c #88B95A",
"=X c #818D67",
"-X c #8A9F67",
";X c #A48165",
":X c #AB8364",
">X c #AB846A",
",X c #AE896C",
"<X c #AE8B65",
"1X c #B18564",
"2X c #B3866C",
"3X c #B38A6A",
"4X c #B88C68",
"5X c #B59367",
"6X c #AE8A70",
"7X c #B58D71",
"8X c #89AE60",
"9X c #95AC69",
"0X c #86B962",
"qX c #96BC69",
"wX c #98B66E",
"eX c #A1BC75",
"rX c #8DC858",
"tX c #90CD56",
"yX c #85C54D",
"uX c #97C368",
"iX c #9DC272",
"pX c #913990",
"aX c #9F6480",
/* pixels */
"pXY U T |  .W.!.'.&X[.[.].^.[.#XrXtX#XI.).I.I._.`._.J.^.J.S.`.[.",
"Y Y U I J E [ !.~.(.T.^.^.T./.K.I.#X).#X`.P.K.K.S.~.L.L.J.S.J.L.",
"Y Y R T J E [ 8X%X'.A A Q.T.^.(.P.P.yXrXrX&X'./.K.~.(.~.S.T.^.[.",
"P P R I H E { -X8X%X- * Q.!.Y.G.H.G.&XrX*X*X*X(.~.G.'.].].%X^.].",
"B.K L J (  .}..XE.{.* & 8X XZ 2 F.%X0XqXqXiXiXqX* - G Y.Q.F.< 2 ",
"aX,.L | _ ] }.Y.{..X< 5 }.W.1 = %X8X$X$XwXeX9X9XC C G Y.}.{ Z 1 ",
",.) ) _ W h s 1 XXXX0   c c , 2 Y.Q.D Z !. XG S Z q : , 9 , s s ",
"% W ` } W @ X 2 oXXXc   8 @ X , oXW.< ; }.}.9 : s F > 7 X X N v ",
"C.>.>.) i.i.|.XXs , 5.f.! ! m x 0 ; ; 5 5 0 F ' x x u.u.e o j v ",
"Z.s.>./ V.f.c.|.4 3 6.u.Q Q ~ <.8   : 8 8 7 x ' B v 6.4.y y =.:.",
"<.j t % i.u.r.oX4 i k.s.h $ O > X 7 c N x g i u N j ~ =.z O.N.A.",
"2.v y $ y.u.t.*.&.%.p.i.z $ O 3 X t u x N u # o M j +.-.k -.C.2X",
"5X|.;.z 3.~ o.d n.8.;.~ Q ~ j.:X:XZ.5.4.Z.3X>X3XO.+.4.4.O.O.9.N.",
"5Xj.3.z :.B n ..+Xj.=.=.~ ;.x.<X3XA.-.b m.4X:X1XO.o.7.7.-.@.-.a.",
"r.%.~ ~ C.C.M.+Xt.b.4.y.>.z n o.v.q.p # 9.b.7.7.b X.n @.2.8.9.h.",
"%.d v ~ >X2X2X1Xw.n.y.s.y.j V n 9.q.+ + -.h.q.b.@.X.p b 0.e.0.e.",
"m.5.M b M ;.9.h.B B s.k./ h g @ b b 0.0.0.9.+.=.k =.B B t @ m N ",
"h.<.<.<.b ~ 9.p.=.=.^ ^ m c g 6 M b 5.5.0.5.M O.=.=.l m g 6 / m ",
"5.B 2.1.r r b k b ~ M g t t i N B v +.v M O.k =.l.A.>XV.^ g 6.f.",
"2.v 5.0.# O +.b j b r . # # e N N v ^ +.+.-.z k Z.>X6X;X3.N 6.6.",
"<.V u.g.v O.m.A.7Xb.X.b m.,Xj.u.6 u k.;X>Xx.j # N.4.0.h.z.x.5.b ",
"5.B 6.5.b 1.:X1X4XN.#.1.n.OXr.2.t v z.,X7XV.j # 5.=.p.l.j.x.<.f ",
"z.<.@.B p O.9.a.v.b.A.M.8.%.8.r.^ ^ u.g.k.g.m j y p a.0.o.d r 3 ",
";Xu.B M M @.7.q.w.q.1XM.@...*.8.6.3.f.u.g.g.N b 3 O 1.1.X.X.3 + ",
"6.N o # 1.8.@.O.w.v.7.q.1Xb.o.n B j ^ 3.v B <.v b v b 1.b.OXOXn.",
"u.B r u =.4.@.X.7.q.7.w.M.n.%.o.=.<.m j ^ B v B O.b v %.b.1X4XOX",
"<.B N 4.1.-.O.p X.@...o.b.h.2.8.f b . O Z.x.r 3 p $.j.OXm.r.v.b.",
"<.B 5.0.M b o.O.X.O.p v 0.h.2.0.n O.r u :Xm.u 3 i %.m.:Xh.7.7.q.",
"x.5.<.v O y p.A.O.O.r e B B t y A.M.A.b.-.n <.e.%.n v %.0.N.a.q.",
"OX5.+.v y b h.3X=.B $ # m m 6 o :XM.4X1Xn d 0.5.B V v O.1.0.9.-.",
"z.5.B $.p.l.k.l.p.6.N ! z.V./ N v.#.v.b.@.o.$.f n 6.g.0.-.b j p ",
"m.e.b O.:X2Xh.d.p.4.m ! ;XV./ j q.w.q.w.X.n n d g.g.p.4.=.k $ # "
};
