/* XPM */
static char *_2d98b6f6a274606bf8837cf95446653d7tDAjMJlf2zJaLB[] = {
/* columns rows colors chars-per-pixel */
"64 64 36 1 ",
"  c #593D29",
". c #79553A",
"X c #745844",
"o c #6C6C6C",
"O c #966C4A",
"+ c #509026",
"@ c #57972D",
"# c #5F9F35",
"$ c #61A137",
"% c #62A238",
"& c #64A43A",
"* c #66A63C",
"= c #67A73D",
"- c #69A93F",
"; c #6AAA40",
": c #6BAB41",
"> c #6CAC42",
", c #6DAD43",
"< c #6FAF45",
"1 c #70B046",
"2 c #73B349",
"3 c #74B44A",
"4 c #76B64C",
"5 c #7EBE54",
"6 c #7FBF55",
"7 c #B9855C",
"8 c #81B051",
"9 c #83B253",
"0 c #8AB95A",
"q c #8DBC5D",
"w c #90BF60",
"e c #92C162",
"r c #93C263",
"t c #97C667",
"y c #9CCB6C",
"u c gray53",
/* pixels */
"333344442222********11<<####>>>>55554444:-:--===----$$$$++++,,,,",
"333344442222********11<<####>>>>55554444-:-:====----$$$$++++,,,,",
"333344442222********<<<<####>>>>55554444:-:-====----$$$$++++,,,,",
"333344442222********<<<<####>>>>55554444-:--====----$$$$++++,,,,",
"3434>>>>000088889999    -*--$%%%####rrrrwwww2222$$$$,:,:====::::",
"4343>>>>000088889999    --*-%%%%####rrrrwwww2222$$$$:,:,====::::",
"3434>>>>000088889998    **--%%%%####rrrrwwww2222$$$$,:,:====::::",
"4343>>>>000088889998    ---*%%%%####rrrrwwww2222$$$$:,:,====::::",
"qqqq    yyyy&&&&----    1111    33336666eeeetttt    @@@@$#$#    ",
"qqqq    yyyy&&&&----    1111    33336666eeeetttt    @@@@#$#$    ",
"qqqq    yyyy&&&&----    1111    33335550eeeetttt    @@@@$#$#    ",
"qqqq    yyyy&&&&---;    1111    33330555eeeetttt    @@@@#$#$    ",
"    oooo        2111            ####    ,,,,    ....        ....",
"    oooo        1121            ####    ,,,,    ....        ....",
"    oooo        1212            ####    ,,,,    ....        ....",
"    oooo        1211            ####    ,,,,    ....        ....",
"OOOO....OOOO7777    OOOO........            oooo....OOOO    ....",
"OOOO....OOOO7777    OOOO........            oooo....OOOO    ....",
"OOOO....OOOO7777    OOOO........            oooo....OOOO    ....",
"OOOO....OOOO7777    OOOO........            oooo....OOOO    ....",
"....    OOOOOOOO....OOOO            ........    ............7777",
"....    OOOOOOOO....OOOO            ........    ............7777",
"....    OOOOOOOO....OOOO            ........    ............7777",
"....    OOOOOOOO....OOOO            ........    ............7777",
"7777............uuuu........77777777....77777777....OOOO....OOOO",
"7777............uuuu........77777777....77777777....OOOO....OOOO",
"7777............uuuu........77777777....77777777....OOOO....OOOO",
"7777............uuuu........77777777....77777777....OOOO....OOOO",
"........77777777OOOOOOOO........OOOO    OOOOOOOO........OOOOOOOO",
"........77777777OOOOOOOO........OOOO    OOOOOOOO........OOOOOOOO",
"........77777777OOOOOOOO........OOOO    OOOOOOOO........OOOOOOOO",
"........77777777OOOOOOOO........OOOO    OOOOOOOO........OOOOOOOO",
"OOOO........OOOO....OOOO....    ....OOOOOOOO............    ....",
"OOOO........OOOO....OOOO....    ....OOOOOOOO............    ....",
"OOOO........OOOO....OOOO....    ....OOOOOOOO............    ....",
"OOOO........OOOO....OOOO....    ....OOOOOOOO............    ....",
"....OOOO    ........        ....................77777777....OOOO",
"....OOOO    ........        ....................77777777....OOOO",
"....OOOO    ........        ....................77777777....OOOO",
"....OOOO    ........        ....................77777777....OOOO",
"....OOOO....77777777....7777OOOO    77777777    OOOOOOOOuuuu....",
"....OOOO....77777777....7777OOOO    77777777    OOOOOOOOuuuu....",
"....OOOO....77777777....7777OOOO    77777777    OOOOOOOOuuuu....",
"....OOOO....77777777....7777OOOO    77777777    OOOOOOOOuuuu....",
"OOOO........OOOOOOOO7777....OOOOooooOOOOOOOO....    OOOO....    ",
"OOOO........OOOOOOOO7777....OOOOooooOOOOOOOO....    OOOO....    ",
"OOOO........OOOOOOOO7777....OOOOooooOOOOOOOO....    OOOO....    ",
"OOOO........OOOOOOOO7777....OOOOooooOOOOOOOO....    OOOO....    ",
"....    OOOO....OOOOOOOO7777............................77777777",
"....    OOOO....OOOOOOOO7777............................77777777",
"....    OOOO....OOOOOOOO7777............................77777777",
"....    OOOO....OOOOOOOO7777............................77777777",
"....OOOO........XXXX....OOOOOOOO....    7777    ....7777OOOOOOOO",
"....OOOO........XXXX....OOOOOOOO....    7777    ....7777OOOOOOOO",
"....OOOO........XXXX....OOOOOOOO....    7777    ....7777OOOOOOOO",
"....OOOO........XXXX....OOOOOOOO....    7777    ....7777OOOOOOOO",
"OOOO....    7777....    ....    77777777....OOOO........OOOOOOOO",
"OOOO....    7777....    ....    77777777....OOOO........OOOOOOOO",
"OOOO....    7777....    ....    77777777....OOOO........OOOOOOOO",
"OOOO....    7777....    ....    77777777....OOOO........OOOOOOOO",
"OOOO....7777OOOOOOOO....uuuu....OOOOOOOO........OOOOOOOO....    ",
"OOOO....7777OOOOOOOO....uuuu....OOOOOOOO........OOOOOOOO....    ",
"OOOO....7777OOOOOOOO....uuuu....OOOOOOOO........OOOOOOOO....    ",
"OOOO....7777OOOOOOOO....uuuu....OOOOOOOO........OOOOOOOO....    "
};
