/* XPM */
static char *ZGlydCslMjgxJTI5[] = {
/* columns rows colors chars-per-pixel */
"32 32 214 2 ",
"   c #243B0D",
".  c #453B1A",
"X  c #593418",
"o  c #553D1C",
"O  c #5C3A1E",
"+  c #643D1E",
"@  c #673B1A",
"#  c #5A3D20",
"$  c #573D24",
"%  c #643D22",
"&  c #6B3C2A",
"*  c #39590F",
"=  c #395510",
"-  c #374B0E",
";  c #345A27",
":  c #404107",
">  c #434312",
",  c #454C1A",
"<  c #4C4C1D",
"1  c #484516",
"2  c #55431F",
"3  c #5B431D",
"4  c #524C1C",
"5  c #425716",
"6  c #455918",
"7  c #50531C",
"8  c #6A421F",
"9  c #45721D",
"0  c #4E4A22",
"q  c #5E4126",
"w  c #5A4A25",
"e  c #544523",
"r  c #465824",
"t  c #5A5121",
"y  c #565229",
"u  c #585A2A",
"i  c #644123",
"p  c #6A4325",
"a  c #634429",
"s  c #6B4429",
"d  c #664C2F",
"f  c #6C4B2D",
"g  c #744B2D",
"h  c #704123",
"j  c #68552B",
"k  c #76522E",
"l  c #6B4D32",
"z  c #674D34",
"x  c #744733",
"c  c #744D33",
"v  c #794F36",
"b  c #714E3A",
"n  c #6B5534",
"m  c #6B5B35",
"M  c #6D5938",
"N  c #695739",
"B  c #755235",
"V  c #7B5435",
"C  c #755C34",
"Z  c #7A5A34",
"A  c #74553B",
"S  c #7B553A",
"D  c #745A3B",
"F  c #7D5A3C",
"G  c #4E6224",
"H  c #596529",
"J  c #5F6831",
"K  c #587130",
"L  c #4C7823",
"P  c #6D613A",
"I  c #696639",
"U  c #72643F",
"Y  c #64723D",
"T  c #697438",
"R  c #775E44",
"E  c #7C5C42",
"W  c #7A5741",
"Q  c #7A6446",
"!  c #7F634C",
"~  c #796A47",
"^  c #7D7F4E",
"/  c #80542F",
"(  c #815535",
")  c #835A35",
"_  c #81563B",
"`  c #835B3C",
"'  c #8A5D3B",
"]  c #915F3C",
"[  c #84613F",
"{  c #8B613D",
"}  c #91653E",
"|  c #845C41",
" . c #8C5D44",
".. c #885E49",
"X. c #856343",
"o. c #8B6343",
"O. c #8C6946",
"+. c #856349",
"@. c #8B654A",
"#. c #85694D",
"$. c #8D6A4B",
"%. c #866F45",
"&. c #926646",
"*. c #936A46",
"=. c #92664B",
"-. c #936B4C",
";. c #9A6C4C",
":. c #99674A",
">. c #84784A",
",. c #93724E",
"<. c #9A714E",
"1. c #8C6E53",
"2. c #8D6754",
"3. c #936D52",
"4. c #9B6F52",
"5. c #936B5A",
"6. c #936556",
"7. c #887357",
"8. c #947253",
"9. c #9C7354",
"0. c #94725A",
"q. c #9C7559",
"w. c #95785C",
"e. c #9D7A5B",
"r. c #9A7855",
"t. c #A1704F",
"y. c #A76F5E",
"u. c #A27555",
"i. c #A47956",
"p. c #A1755C",
"a. c #A47B5C",
"s. c #AA7C5D",
"d. c #987B62",
"f. c #A37C61",
"g. c #AA7E62",
"h. c #AA7261",
"j. c #5A9C35",
"k. c #69843B",
"l. c #65963C",
"z. c #68983B",
"x. c #5EA339",
"c. c #63A43D",
"v. c #6DA13D",
"b. c #6BAA3D",
"n. c #65AA3F",
"m. c #71AB3D",
"M. c #72B23F",
"N. c #7C844B",
"B. c #758845",
"V. c #699A42",
"C. c #759B48",
"Z. c #769848",
"A. c #7A9855",
"S. c #72884A",
"D. c #5FB142",
"F. c #65A442",
"G. c #6CA344",
"H. c #6BAB4A",
"J. c #77A542",
"K. c #72AB42",
"L. c #76A74A",
"P. c #7CBA45",
"I. c #7BBC4B",
"U. c #77B548",
"Y. c #7AA252",
"T. c #7EAA51",
"R. c #7DA35B",
"E. c #74BC54",
"W. c #7AB657",
"Q. c #65B84C",
"!. c #7D9F66",
"~. c #7DA566",
"^. c #6EC054",
"/. c #7BC95C",
"(. c #868A5A",
"). c #9C8059",
"_. c #82965A",
"`. c #8A9C5C",
"'. c #AC815E",
"]. c #84B84E",
"[. c #84A757",
"{. c #91AD5C",
"}. c #84BA53",
"|. c #8AB859",
" X c #978365",
".X c #8B9C64",
"XX c #9A946F",
"oX c #A48265",
"OX c #AC8264",
"+X c #AB8569",
"@X c #AD8A6B",
"#X c #B28564",
"$X c #B5876C",
"%X c #B38A6A",
"&X c #BA896C",
"*X c #AE8A70",
"=X c #B88A73",
"-X c #89AE60",
";X c #93AA66",
":X c #8CB861",
">X c #95BC6A",
",X c #98B768",
"<X c #85A772",
"1X c #99A87C",
"2X c #A2B774",
"3X c #C58B7D",
"4X c #90CB57",
"5X c #89C554",
"6X c #97C368",
"7X c #9DC577",
"8X c #ADC27D",
"9X c #90B182",
"0X c #AAB48F",
"qX c #B3AA8B",
/* pixels */
"1Xr = 7XH.E./.D.Q.^.E.E.L.G.].].4X4X5XM.P.K.M.^.M.5Xn.n.x.j.U.E.",
"  <XR.R.W.W.F.H.n.H.F.F.H.z.J.J.J.].M.5XU.K.b.b.j.b.c.c.j.j.x.H.",
"; <X~.A.>X,XL.V.[.[.L 9 V.V.G.H.v.m.5X5X5X|.T.H.v.G.L.G.l.V.G.W.",
"9X!.!.R.;X{.,X{.{.[.6 * Z.A.V.l.z.z.|.4X5X|.|.T.v.z.[.L.Y.[.C.Y.",
"0X1XY - {.2X[.Z.A.A.5 5 `.`.H 5 C.].:X>X>X6X6X,X* * k.k.S.B.6 * ",
"qXXXI > 2X2XZ.B.A.A., , (.(.t - `.[.[.[.,X2X;X;XG G T ^ N.N.J 7 ",
"R e U U H 6 5 G .X.Xu . j k i 3 N.A.K H .X.XY J u u < 7 t t j j ",
"W $ ~ %.4 1 > 1 (.XXN . q O O 3 N.N.r , N..Xy . j P 2 e o o C C ",
"7.~ R N %.%.).@Xn % 5.0.W A N N y < , 0 0 y P ~ m m 1.1.i O c A ",
" X^ ~ N ,.,.i.s.g & 6.5.b W R Q e 1 < 0 e w M Q E Z #.@.s &  ...",
"! z q q O.$.9.9.b x 5.5.l # O 3 o e n D M d d f D c E | x v q.g.",
"5.S s # O.O.8.8.....5.2.x O @ 8 # q d A S f % O B v _  .v | h.=X",
"3Xh. .x { Z D D d.7.! W c _ t.'.+Xd.=.O.a.@X+X@XF | &.@._ _ =.p.",
"=Xy. .x { Z Z D  Xd.E F F ` '.#X$XOX| ( a.$X#X#X( ' o.&. .' o.4.",
"0...| V i.u.s.g.4.d.@.@.X.k C Z <.;.x h *.u.&.&.V ( V { O.*.*.<.",
"+.W v S OX#X&X&X:.h.6.3.+.j m C *.:.@ @  .u.;.u.` ( g Z -.,.-.,.",
"e.$.S B _ | 4.4.F | 5.0.W l d # V S -.=.=.-._ | v | S S a $ W A ",
"r.O.[ [ B _ $.3.| E | E D N z q Z B $.$.$.$._ S | | b W d a R N ",
"-.F O.+.p & B v v E F l a a d D F B ` Z V ` v _ f.+Xf.d.E l #.7.",
"O.B -.-.+ + ` S x B i X % % i D A n | F | | v v f.g.*X+X+.A #.#.",
"X.D $.q.v ) s.g.=Xa.( V '.@Xr.-.i f 0.oX+Xe.v % e.$.-.9.0.e.$.Z ",
"$.F @.$.B o.OXOX&Xu. .] i.'.<.%.a n w.@X*Xd.B % =.` 3.q.i.e.+.g ",
"w.+.F F c ) *.;.t.i.s.i.} } *.r.| R 1.0.0.0.S c s g ;.-.) V 8 8 ",
"oX1.F S S ' =.;.:.;.#X'.{ / } } $.+.1.1.8.3.S B + + o.o.) V 8 @ ",
"@.D O i O.-._ _ :.t.&.;.'.i.) k F c E +.A Z X.B V V V { u.'.'.i.",
"1.F p f ' @.' ) &.t.&.:.'.i.{ [ | X.S B | F A Z S V B [ u.#X#X'.",
"X.F F O.o.' _ g ( _ v ) t.<.*.*.c V X + f.e.a 8 g [ r.'.i.<.u.u.",
"X.Z @.1._ v ` ( ( ' g B ,.9.O.$.S ` + f oX'.f 8 f { '.OXq.*.&.;.",
"e.@.X.B + s 4.OX_ F & % S F d s s.s.s.u.{ F [ *.X.Z B ' -.q.u.-.",
"'.-.` k s B 9.+X| S i % A S # O OXs.&X#X) k ,.$.[ Z B S o.*.=.o.",
"w.$.F X.9.0.9.q.3.$.A W d.d.Q A ;.} t.i.' ) [ k Z O.8.3. .B x g ",
"'.,.B ` OX#X5.3.3.@.A R d.d.E g ;.:.:.*.) V Z k 8.8.8.@.` c p & "
};
